<svg xmlns="http://www.w3.org/2000/svg" xmlns:xlink="http://www.w3.org/1999/xlink" preserveAspectRatio="xMidYMid" width="66" height="63" viewBox="0 0 66 63">
  <defs>
    <style>

      .cls-2 {
        fill: #ffffff;
      }
    </style>
  </defs>
  <path d="M63.043,11.793 C63.043,11.793 62.641,11.793 62.641,11.793 C62.641,11.793 62.641,45.007 62.641,45.007 C62.641,46.636 61.315,47.962 59.684,47.962 C59.684,47.962 34.478,47.962 34.478,47.962 C34.478,47.962 34.478,52.299 34.478,52.299 C34.478,52.299 45.435,60.331 45.435,60.331 C46.093,60.813 46.235,61.738 45.752,62.396 C45.463,62.791 45.014,63.000 44.559,63.000 C44.255,63.000 43.949,62.907 43.686,62.714 C43.686,62.714 34.478,55.964 34.478,55.964 C34.478,55.964 34.478,61.522 34.478,61.522 C34.478,62.338 33.817,63.000 33.000,63.000 C32.183,63.000 31.521,62.338 31.521,61.522 C31.521,61.522 31.521,55.964 31.521,55.964 C31.521,55.964 22.314,62.714 22.314,62.714 C21.656,63.196 20.731,63.054 20.248,62.396 C19.765,61.738 19.907,60.813 20.565,60.331 C20.565,60.331 31.521,52.299 31.521,52.299 C31.521,52.299 31.521,47.962 31.521,47.962 C31.521,47.962 6.316,47.962 6.316,47.962 C4.685,47.962 3.359,46.636 3.359,45.007 C3.359,45.007 3.359,11.793 3.359,11.793 C3.359,11.793 2.957,11.793 2.957,11.793 C1.326,11.793 -0.000,10.468 -0.000,8.838 C-0.000,8.838 -0.000,6.096 -0.000,6.096 C-0.000,4.466 1.326,3.140 2.957,3.140 C2.957,3.140 31.521,3.140 31.521,3.140 C31.521,3.140 31.521,1.477 31.521,1.477 C31.521,0.661 32.183,-0.000 33.000,-0.000 C33.816,-0.000 34.478,0.661 34.478,1.477 C34.478,1.477 34.478,3.140 34.478,3.140 C34.478,3.140 63.043,3.140 63.043,3.140 C64.674,3.140 66.000,4.466 66.000,6.096 C66.000,6.096 66.000,8.838 66.000,8.838 C66.000,10.468 64.673,11.793 63.043,11.793 ZM6.316,45.006 C6.316,45.006 59.684,45.006 59.684,45.006 C59.684,45.006 59.684,45.006 59.684,45.006 C59.684,45.006 59.684,11.793 59.684,11.793 C59.684,11.793 6.316,11.793 6.316,11.793 C6.316,11.793 6.316,45.006 6.316,45.006 ZM63.043,6.096 C63.043,6.096 2.957,6.096 2.957,6.096 C2.957,6.096 2.957,8.838 2.957,8.838 C2.957,8.838 63.043,8.838 63.043,8.838 C63.043,8.838 63.043,8.838 63.043,8.838 C63.043,8.838 63.043,6.096 63.043,6.096 ZM32.972,41.788 C25.878,41.788 20.107,36.020 20.107,28.930 C20.107,28.196 20.703,27.600 21.437,27.600 C21.437,27.600 31.641,27.600 31.641,27.600 C31.641,27.600 31.641,17.402 31.641,17.402 C31.641,16.667 32.237,16.072 32.972,16.072 C40.066,16.072 45.837,21.840 45.837,28.930 C45.837,36.020 40.066,41.788 32.972,41.788 ZM34.302,18.818 C34.302,18.818 34.302,28.930 34.302,28.930 C34.302,29.664 33.707,30.260 32.972,30.260 C32.972,30.260 22.854,30.260 22.854,30.260 C23.508,35.257 27.796,39.128 32.972,39.128 C38.598,39.128 43.176,34.553 43.176,28.930 C43.176,23.758 39.302,19.472 34.302,18.818 ZM28.468,25.759 C28.468,25.759 20.061,25.759 20.061,25.759 C19.326,25.759 18.731,25.164 18.731,24.429 C18.731,19.063 23.099,14.696 28.468,14.696 C29.203,14.696 29.799,15.292 29.799,16.026 C29.799,16.026 29.799,24.429 29.799,24.429 C29.799,25.164 29.203,25.759 28.468,25.759 ZM27.138,17.482 C24.301,18.023 22.059,20.264 21.518,23.099 C21.518,23.099 27.138,23.099 27.138,23.099 C27.138,23.099 27.138,17.482 27.138,17.482 Z" id="path-1" class="cls-2" fill-rule="evenodd"/>
</svg>
