<svg xmlns="http://www.w3.org/2000/svg" xmlns:xlink="http://www.w3.org/1999/xlink" preserveAspectRatio="xMidYMid" width="63" height="63" viewBox="0 0 63 63">
  <defs>
    <style>

      .cls-2 {
        fill: #ffffff;
      }
    </style>
  </defs>
  <path d="M62.791,18.740 C62.207,23.073 60.408,27.947 57.581,32.885 C64.009,44.100 64.782,54.257 59.559,59.526 C57.254,61.851 54.006,62.999 50.141,62.999 C45.246,62.999 39.362,61.157 33.149,57.535 C26.936,61.157 21.051,62.999 16.157,62.999 C12.292,62.999 9.045,61.851 6.741,59.525 C1.517,54.258 2.289,44.102 8.715,32.885 C7.449,30.675 6.388,28.476 5.549,26.323 C5.517,26.324 5.486,26.326 5.454,26.326 C2.447,26.326 -0.000,23.858 -0.000,20.823 C-0.000,18.560 1.361,16.613 3.301,15.768 C3.296,11.811 4.471,8.535 6.741,6.245 C11.963,0.975 22.030,1.753 33.149,8.236 C39.661,4.441 45.953,2.536 51.092,2.795 C52.030,1.127 53.805,-0.000 55.838,-0.000 C58.846,-0.000 61.292,2.468 61.292,5.502 C61.292,6.308 61.118,7.074 60.808,7.764 C62.703,10.546 63.389,14.312 62.791,18.740 ZM57.389,57.337 C61.313,53.379 60.622,45.120 55.732,35.901 C53.267,39.673 50.304,43.315 46.896,46.753 C43.488,50.190 39.878,53.179 36.138,55.668 C45.277,60.600 53.464,61.296 57.389,57.337 ZM8.911,57.337 C12.835,61.296 21.021,60.600 30.160,55.668 C26.420,53.179 22.810,50.190 19.402,46.753 C15.995,43.316 13.032,39.674 10.565,35.901 C5.676,45.120 4.986,53.379 8.911,57.337 ZM3.069,20.823 C3.069,22.150 4.139,23.230 5.454,23.230 C6.770,23.230 7.840,22.150 7.840,20.823 C7.840,19.496 6.770,18.416 5.454,18.416 C4.139,18.416 3.069,19.496 3.069,20.823 ZM8.911,8.434 C7.299,10.060 6.433,12.450 6.371,15.400 C8.944,15.841 10.909,18.104 10.909,20.823 C10.909,22.726 9.947,24.406 8.487,25.394 C9.069,26.865 9.763,28.361 10.565,29.871 C13.032,26.098 15.995,22.456 19.403,19.018 C22.810,15.581 26.420,12.591 30.160,10.103 C21.021,5.171 12.835,4.474 8.911,8.434 ZM21.573,21.207 C17.917,24.895 14.798,28.819 12.292,32.885 C14.798,36.951 17.917,40.876 21.573,44.564 C25.228,48.252 29.119,51.398 33.149,53.926 C37.179,51.398 41.070,48.252 44.726,44.564 C48.383,40.875 51.501,36.950 54.005,32.885 C51.501,28.820 48.383,24.896 44.726,21.207 C41.070,17.519 37.179,14.373 33.149,11.845 C29.119,14.373 25.228,17.519 21.573,21.207 ZM55.838,3.095 C54.522,3.095 53.452,4.175 53.452,5.502 C53.452,6.829 54.522,7.909 55.838,7.909 C57.153,7.909 58.224,6.829 58.224,5.502 C58.224,4.175 57.153,3.095 55.838,3.095 ZM58.690,10.190 C57.859,10.706 56.883,11.005 55.838,11.005 C52.952,11.005 50.584,8.731 50.396,5.867 C46.321,5.798 41.374,7.267 36.136,10.101 C39.877,12.590 43.488,15.580 46.896,19.018 C50.304,22.456 53.267,26.098 55.732,29.870 C57.895,25.794 59.276,21.841 59.751,18.323 C60.193,15.045 59.826,12.271 58.690,10.190 ZM33.149,41.066 C28.678,41.066 25.039,37.396 25.039,32.885 C25.039,28.374 28.678,24.704 33.149,24.704 C37.621,24.704 41.259,28.374 41.260,32.885 C41.260,37.396 37.621,41.066 33.149,41.066 ZM33.149,27.800 C30.370,27.800 28.108,30.081 28.108,32.885 C28.108,35.689 30.370,37.971 33.149,37.971 C35.929,37.971 38.191,35.689 38.191,32.885 C38.191,30.081 35.929,27.800 33.149,27.800 Z" id="path-1" class="cls-2" fill-rule="evenodd"/>
</svg>
