<svg xmlns="http://www.w3.org/2000/svg" xmlns:xlink="http://www.w3.org/1999/xlink" preserveAspectRatio="xMidYMid" width="68" height="55" viewBox="0 0 68 55">
  <defs>
    <style>

      .cls-2 {
        fill: #ffffff;
      }
    </style>
  </defs>
  <path d="M65.675,30.451 C66.271,31.313 66.621,32.356 66.621,33.480 C66.621,35.303 65.700,36.917 64.297,37.886 C64.893,38.748 65.242,39.791 65.242,40.914 C65.242,42.738 64.321,44.351 62.918,45.321 C63.514,46.183 63.863,47.226 63.863,48.349 C63.863,51.305 61.445,53.710 58.473,53.710 C58.473,53.710 52.677,53.710 52.677,53.710 C52.677,53.710 50.379,53.710 50.379,53.710 C50.379,53.710 42.846,53.710 42.846,53.710 C37.434,53.710 31.998,52.472 27.125,50.129 C27.125,50.129 25.065,49.139 25.065,49.139 C25.065,49.139 22.991,49.139 22.991,49.139 C22.991,49.139 22.991,51.712 22.991,51.712 C22.991,53.525 21.508,54.999 19.686,54.999 C19.686,54.999 3.305,54.999 3.305,54.999 C1.483,54.999 -0.000,53.525 -0.000,51.712 C-0.000,51.712 -0.000,19.678 -0.000,19.678 C-0.000,17.865 1.483,16.391 3.305,16.391 C3.305,16.391 19.686,16.391 19.686,16.391 C21.508,16.391 22.991,17.865 22.991,19.678 C22.991,19.678 22.991,21.403 22.991,21.403 C22.991,21.403 26.791,21.403 26.791,21.403 C26.791,21.403 33.364,15.935 33.364,15.935 C36.104,13.655 38.166,10.674 39.329,7.315 C39.329,7.315 40.618,3.538 40.655,3.446 C41.506,1.352 43.523,-0.001 45.793,-0.001 C48.848,-0.001 51.333,2.471 51.333,5.509 C51.333,5.531 51.325,9.442 51.325,9.442 C51.318,12.646 50.649,15.755 49.337,18.682 C49.337,18.682 48.440,20.684 48.440,20.684 C48.440,20.684 62.610,20.684 62.610,20.684 C65.582,20.684 68.000,23.088 68.000,26.045 C68.000,27.869 67.079,29.482 65.675,30.451 ZM19.686,19.678 C19.686,19.678 3.305,19.678 3.305,19.678 C3.305,19.678 3.305,51.712 3.305,51.712 C3.305,51.712 19.686,51.712 19.686,51.712 C19.687,51.712 19.688,51.712 19.688,51.712 C19.688,51.712 19.686,19.678 19.686,19.678 ZM62.610,23.971 C62.610,23.971 45.910,23.971 45.910,23.971 C44.690,23.971 44.333,22.816 44.323,22.784 C44.211,22.419 44.225,22.013 44.394,21.637 C44.394,21.637 46.319,17.343 46.319,17.343 C47.442,14.838 48.014,12.178 48.020,9.435 C48.020,9.435 48.028,5.531 48.028,5.509 C48.028,4.283 47.026,3.286 45.794,3.286 C44.924,3.286 44.147,3.779 43.776,4.552 C43.768,4.578 42.454,8.385 42.454,8.385 C41.095,12.310 38.685,15.792 35.485,18.456 C35.485,18.456 28.451,24.307 28.451,24.307 C28.154,24.555 27.779,24.690 27.391,24.690 C27.391,24.690 22.991,24.690 22.991,24.690 C22.991,24.690 22.991,45.851 22.991,45.851 C22.991,45.851 25.444,45.851 25.444,45.851 C25.693,45.851 25.939,45.908 26.163,46.015 C26.163,46.015 28.564,47.170 28.564,47.170 C32.991,49.298 37.929,50.423 42.846,50.423 C42.846,50.423 50.379,50.423 50.379,50.423 C50.379,50.423 52.677,50.423 52.677,50.423 C52.677,50.423 58.474,50.423 58.474,50.423 C59.623,50.423 60.559,49.492 60.559,48.349 C60.559,47.206 59.624,46.276 58.474,46.276 C58.474,46.276 57.501,46.276 57.501,46.276 C56.589,46.276 55.849,45.540 55.849,44.632 C55.849,43.724 56.589,42.988 57.501,42.988 C57.501,42.988 59.853,42.988 59.853,42.988 C61.002,42.988 61.938,42.058 61.938,40.914 C61.938,39.771 61.002,38.841 59.853,38.841 C59.853,38.841 58.880,38.841 58.880,38.841 C57.967,38.841 57.227,38.105 57.227,37.197 C57.227,36.289 57.967,35.554 58.880,35.554 C58.880,35.554 61.231,35.554 61.231,35.554 C62.381,35.554 63.316,34.623 63.316,33.480 C63.316,32.336 62.381,31.406 61.231,31.406 C61.231,31.406 60.258,31.406 60.258,31.406 C59.346,31.406 58.606,30.670 58.606,29.762 C58.606,28.855 59.346,28.119 60.258,28.119 C60.258,28.119 62.610,28.119 62.610,28.119 C63.760,28.119 64.695,27.189 64.695,26.045 C64.695,24.901 63.760,23.971 62.610,23.971 ZM14.636,48.095 C13.367,48.095 12.338,47.071 12.338,45.809 C12.338,44.547 13.367,43.523 14.636,43.523 C15.905,43.523 16.934,44.547 16.934,45.809 C16.934,47.071 15.905,48.095 14.636,48.095 Z" id="path-1" class="cls-2" fill-rule="evenodd"/>
</svg>
