<svg xmlns="http://www.w3.org/2000/svg" xmlns:xlink="http://www.w3.org/1999/xlink" preserveAspectRatio="xMidYMid" width="76" height="75" viewBox="0 0 76 75">
  <defs>
    <style>

      .cls-2 {
        fill: #ffffff;
      }
    </style>
  </defs>
  <path d="M75.899,47.422 C75.624,48.271 74.838,48.811 73.993,48.811 C73.788,48.811 73.579,48.779 73.373,48.712 C73.373,48.712 69.930,47.591 69.930,47.591 C68.876,47.248 68.300,46.115 68.643,45.060 C68.985,44.005 70.116,43.428 71.169,43.771 C71.169,43.771 74.612,44.892 74.612,44.892 C75.665,45.235 76.241,46.367 75.899,47.422 ZM58.058,41.177 C57.822,41.407 57.714,41.740 57.770,42.065 C57.770,42.065 60.610,58.656 60.610,58.656 C60.935,60.554 60.171,62.435 58.616,63.567 C57.738,64.207 56.710,64.532 55.675,64.532 C54.879,64.532 54.078,64.340 53.338,63.949 C53.338,63.949 38.465,56.116 38.465,56.116 C38.172,55.963 37.824,55.963 37.532,56.116 C37.532,56.116 22.658,63.949 22.658,63.949 C20.957,64.845 18.934,64.699 17.379,63.567 C15.825,62.436 15.061,60.554 15.385,58.656 C15.385,58.656 18.226,42.065 18.226,42.065 C18.282,41.740 18.174,41.408 17.938,41.177 C17.938,41.177 5.905,29.427 5.905,29.427 C4.528,28.083 4.042,26.111 4.637,24.280 C5.231,22.449 6.781,21.140 8.682,20.863 C8.682,20.863 25.312,18.442 25.312,18.442 C25.638,18.395 25.920,18.189 26.067,17.893 C26.067,17.893 33.504,2.798 33.504,2.798 C34.354,1.071 36.076,-0.001 37.998,-0.001 C39.920,-0.001 41.642,1.071 42.492,2.798 C42.492,2.798 49.929,17.893 49.929,17.893 C50.075,18.189 50.357,18.395 50.684,18.442 C50.684,18.442 67.314,20.863 67.314,20.863 C69.215,21.140 70.766,22.449 71.360,24.280 C71.953,26.111 71.467,28.083 70.091,29.427 C70.091,29.427 58.058,41.177 58.058,41.177 ZM67.546,25.521 C67.488,25.343 67.294,24.919 66.737,24.838 C66.737,24.838 50.108,22.417 50.108,22.417 C48.475,22.180 47.064,21.153 46.334,19.671 C46.334,19.671 38.897,4.576 38.897,4.576 C38.648,4.071 38.186,4.016 37.998,4.016 C37.811,4.016 37.348,4.071 37.099,4.576 C37.099,4.576 29.663,19.671 29.663,19.671 C28.932,21.153 27.521,22.180 25.889,22.417 C25.889,22.417 9.259,24.838 9.259,24.838 C8.703,24.919 8.508,25.342 8.450,25.521 C8.392,25.700 8.301,26.157 8.704,26.550 C8.704,26.550 20.737,38.301 20.737,38.301 C21.919,39.455 22.457,41.116 22.178,42.745 C22.178,42.745 19.338,59.336 19.338,59.336 C19.243,59.891 19.585,60.208 19.737,60.318 C19.888,60.428 20.294,60.656 20.792,60.394 C20.792,60.394 35.666,52.561 35.666,52.561 C36.396,52.177 37.197,51.984 37.998,51.984 C38.799,51.984 39.600,52.177 40.331,52.561 C40.331,52.561 55.204,60.394 55.204,60.394 C55.702,60.657 56.108,60.428 56.260,60.318 C56.412,60.208 56.754,59.891 56.659,59.336 C56.659,59.336 53.818,42.745 53.818,42.745 C53.539,41.116 54.078,39.455 55.259,38.301 C55.259,38.301 67.293,26.551 67.293,26.551 C67.696,26.158 67.604,25.700 67.546,25.521 ZM59.734,8.536 C59.342,9.077 58.731,9.364 58.111,9.364 C57.702,9.364 57.290,9.239 56.934,8.980 C56.038,8.329 55.840,7.073 56.490,6.175 C56.490,6.175 58.618,3.241 58.618,3.241 C59.269,2.344 60.523,2.145 61.419,2.797 C62.315,3.449 62.513,4.705 61.862,5.602 C61.862,5.602 59.734,8.536 59.734,8.536 ZM17.876,9.352 C17.256,9.352 16.645,9.066 16.252,8.524 C16.252,8.524 14.124,5.590 14.124,5.590 C13.474,4.693 13.672,3.437 14.568,2.785 C15.464,2.133 16.717,2.332 17.368,3.229 C17.368,3.229 19.496,6.163 19.496,6.163 C20.147,7.061 19.948,8.317 19.053,8.968 C18.697,9.228 18.285,9.352 17.876,9.352 ZM7.353,45.058 C7.695,46.113 7.119,47.245 6.066,47.588 C6.066,47.588 2.622,48.709 2.622,48.709 C2.416,48.776 2.208,48.808 2.002,48.808 C1.157,48.808 0.371,48.269 0.096,47.420 C-0.246,46.365 0.330,45.232 1.383,44.889 C1.383,44.889 4.826,43.768 4.826,43.768 C5.880,43.425 7.011,44.003 7.353,45.058 ZM37.998,67.355 C39.106,67.355 40.003,68.255 40.003,69.364 C40.003,69.364 40.003,72.991 40.003,72.991 C40.003,74.100 39.106,74.999 37.998,74.999 C36.891,74.999 35.994,74.100 35.994,72.991 C35.994,72.991 35.994,69.364 35.994,69.364 C35.994,68.255 36.891,67.355 37.998,67.355 Z" id="path-1" class="cls-2" fill-rule="evenodd"/>
</svg>
