<svg xmlns="http://www.w3.org/2000/svg" xmlns:xlink="http://www.w3.org/1999/xlink" preserveAspectRatio="xMidYMid" width="55" height="64" viewBox="0 0 55 64">
  <defs>
    <style>

      .cls-2 {
        fill: #ffffff;
      }
    </style>
  </defs>
  <path d="M54.940,9.874 C53.761,17.099 49.198,23.481 42.722,26.983 C42.130,28.401 41.461,29.743 40.714,30.995 C38.366,34.932 35.454,37.670 32.249,39.028 C31.884,42.383 34.112,45.570 37.487,46.327 C37.493,46.328 37.499,46.330 37.505,46.332 C38.161,46.486 38.649,47.072 38.649,47.772 C38.649,47.772 38.649,54.567 38.649,54.567 C38.649,54.567 41.407,54.567 41.407,54.567 C43.866,54.567 45.867,56.561 45.867,59.011 C45.867,59.011 45.867,62.518 45.867,62.518 C45.867,63.336 45.201,63.999 44.380,63.999 C44.380,63.999 10.762,63.999 10.762,63.999 C9.941,63.999 9.275,63.336 9.275,62.518 C9.275,62.518 9.275,59.011 9.275,59.011 C9.275,56.561 11.276,54.567 13.735,54.567 C13.735,54.567 16.493,54.567 16.493,54.567 C16.493,54.567 16.493,47.772 16.493,47.772 C16.493,47.073 16.980,46.489 17.633,46.333 C17.640,46.331 17.645,46.328 17.652,46.327 C21.002,45.575 23.226,42.420 22.895,39.089 C19.634,37.754 16.670,34.991 14.286,30.994 C13.540,29.743 12.870,28.401 12.278,26.983 C5.802,23.482 1.239,17.099 0.060,9.874 C-0.157,8.548 0.222,7.198 1.099,6.171 C1.986,5.133 3.278,4.537 4.645,4.537 C4.645,4.537 9.134,4.537 9.134,4.537 C9.134,4.537 9.134,3.139 9.134,3.139 C9.134,1.408 10.547,-0.001 12.284,-0.001 C12.284,-0.001 42.716,-0.001 42.716,-0.001 C44.453,-0.001 45.867,1.408 45.867,3.139 C45.867,3.139 45.867,4.537 45.867,4.537 C45.867,4.537 50.354,4.537 50.354,4.537 C51.722,4.537 53.014,5.133 53.900,6.171 C54.778,7.198 55.157,8.548 54.940,9.874 ZM13.735,57.529 C12.915,57.529 12.248,58.194 12.248,59.011 C12.248,59.011 12.248,61.037 12.248,61.037 C12.248,61.037 42.894,61.037 42.894,61.037 C42.894,61.037 42.894,59.011 42.894,59.011 C42.894,58.194 42.227,57.529 41.407,57.529 C41.407,57.529 13.735,57.529 13.735,57.529 ZM19.466,49.253 C19.466,49.253 19.466,54.567 19.466,54.567 C19.466,54.567 35.676,54.567 35.676,54.567 C35.676,54.567 35.676,49.253 35.676,49.253 C35.676,49.253 19.466,49.253 19.466,49.253 ZM31.791,46.291 C30.212,44.561 29.273,42.284 29.239,39.879 C28.665,39.964 28.086,40.009 27.501,40.009 C26.964,40.009 26.431,39.971 25.903,39.899 C25.879,41.689 25.359,43.441 24.369,44.983 C24.068,45.451 23.732,45.887 23.365,46.291 C23.365,46.291 31.791,46.291 31.791,46.291 ZM9.133,10.224 C9.133,10.224 9.133,7.499 9.133,7.499 C9.133,7.499 4.645,7.499 4.645,7.499 C4.151,7.499 3.685,7.714 3.364,8.090 C3.048,8.460 2.917,8.925 2.994,9.398 C3.835,14.550 6.642,19.213 10.718,22.423 C9.681,18.637 9.133,14.498 9.133,10.224 ZM42.893,3.139 C42.893,3.041 42.814,2.962 42.716,2.962 C42.716,2.962 12.284,2.962 12.284,2.962 C12.186,2.962 12.107,3.041 12.107,3.139 C12.107,3.139 12.107,10.225 12.107,10.225 C12.107,17.522 13.788,24.361 16.842,29.481 C19.752,34.360 23.537,37.046 27.501,37.046 C31.464,37.046 35.249,34.360 38.158,29.481 C41.212,24.361 42.893,17.522 42.893,10.225 C42.893,10.225 42.893,3.139 42.893,3.139 ZM51.636,8.090 C51.315,7.715 50.848,7.499 50.354,7.499 C50.354,7.499 45.867,7.499 45.867,7.499 C45.867,7.499 45.867,10.225 45.867,10.225 C45.867,14.498 45.319,18.637 44.282,22.422 C48.359,19.212 51.165,14.549 52.006,9.398 C52.083,8.925 51.952,8.460 51.636,8.090 ZM32.902,19.877 C32.902,19.877 33.669,24.329 33.669,24.329 C33.764,24.885 33.535,25.446 33.077,25.778 C32.818,25.966 32.512,26.061 32.204,26.061 C31.967,26.061 31.730,26.005 31.512,25.891 C31.512,25.891 27.500,23.789 27.500,23.789 C27.500,23.789 23.488,25.891 23.488,25.891 C22.987,26.153 22.380,26.109 21.922,25.778 C21.464,25.447 21.235,24.885 21.331,24.329 C21.331,24.329 22.097,19.878 22.097,19.878 C22.097,19.878 18.851,16.725 18.851,16.725 C18.446,16.331 18.300,15.743 18.475,15.207 C18.650,14.670 19.115,14.279 19.675,14.199 C19.675,14.199 24.161,13.549 24.161,13.549 C24.161,13.549 26.167,9.499 26.167,9.499 C26.417,8.993 26.934,8.673 27.500,8.673 C28.066,8.673 28.582,8.993 28.833,9.499 C28.833,9.499 30.839,13.549 30.839,13.549 C30.839,13.549 35.325,14.199 35.325,14.199 C35.885,14.280 36.350,14.671 36.525,15.207 C36.700,15.743 36.554,16.331 36.148,16.725 C36.148,16.725 32.902,19.877 32.902,19.877 ZM29.638,16.369 C29.154,16.299 28.736,15.995 28.519,15.558 C28.519,15.558 27.500,13.501 27.500,13.501 C27.500,13.501 26.481,15.558 26.481,15.558 C26.264,15.995 25.846,16.299 25.362,16.369 C25.362,16.369 23.083,16.699 23.083,16.699 C23.083,16.699 24.732,18.300 24.732,18.300 C25.082,18.640 25.242,19.131 25.159,19.611 C25.159,19.611 24.770,21.872 24.770,21.872 C24.770,21.872 26.808,20.805 26.808,20.805 C27.025,20.691 27.262,20.635 27.500,20.635 C27.737,20.635 27.975,20.691 28.192,20.805 C28.192,20.805 30.229,21.872 30.229,21.872 C30.229,21.872 29.840,19.611 29.840,19.611 C29.757,19.131 29.917,18.640 30.268,18.300 C30.268,18.300 31.917,16.699 31.917,16.699 C31.917,16.699 29.638,16.369 29.638,16.369 Z" id="path-1" class="cls-2" fill-rule="evenodd"/>
</svg>
