<svg xmlns="http://www.w3.org/2000/svg" xmlns:xlink="http://www.w3.org/1999/xlink" preserveAspectRatio="xMidYMid" width="81" height="63" viewBox="0 0 81 63">
  <defs>
    <style>

      .cls-2 {
        fill: #ffffff;
      }
    </style>
  </defs>
  <path d="M81.000,57.501 C81.000,60.533 78.534,63.000 75.502,63.000 C75.502,63.000 5.498,63.000 5.498,63.000 C2.466,63.000 -0.000,60.533 -0.000,57.501 C-0.000,57.501 -0.000,32.913 -0.000,32.913 C-0.000,31.873 0.291,30.899 0.795,30.068 C0.795,30.068 0.770,30.056 0.770,30.056 C0.770,30.056 12.541,6.782 12.541,6.782 C13.492,4.901 15.392,3.733 17.500,3.733 C17.500,3.733 19.737,3.733 19.737,3.733 C19.737,3.733 19.737,1.569 19.737,1.569 C19.737,0.702 20.440,-0.001 21.307,-0.001 C21.307,-0.001 59.693,-0.001 59.693,-0.001 C60.560,-0.001 61.263,0.702 61.263,1.569 C61.263,1.569 61.263,3.733 61.263,3.733 C61.263,3.733 63.500,3.733 63.500,3.733 C65.608,3.733 67.508,4.901 68.459,6.782 C68.459,6.782 80.230,30.056 80.230,30.056 C80.230,30.056 80.205,30.068 80.205,30.068 C80.709,30.899 81.000,31.873 81.000,32.913 C81.000,32.913 81.000,57.501 81.000,57.501 ZM19.737,7.221 C19.737,7.221 17.500,7.221 17.500,7.221 C16.715,7.221 16.008,7.656 15.654,8.357 C15.654,8.357 6.014,27.416 6.014,27.416 C6.014,27.416 12.569,27.416 12.569,27.416 C12.569,27.416 12.569,21.551 12.569,21.551 C12.569,20.684 13.271,19.981 14.138,19.981 C14.138,19.981 16.080,19.981 16.080,19.981 C16.080,19.981 16.080,11.560 16.080,11.560 C16.080,10.693 16.783,9.990 17.650,9.990 C17.650,9.990 19.737,9.990 19.737,9.990 C19.737,9.990 19.737,7.221 19.737,7.221 ZM15.708,23.121 C15.708,23.121 15.708,27.416 15.708,27.416 C15.708,27.416 23.991,27.416 23.991,27.416 C25.413,27.416 26.708,28.253 27.292,29.548 C27.292,29.548 29.554,34.565 29.554,34.565 C29.576,34.613 29.623,34.644 29.675,34.644 C29.675,34.644 51.325,34.644 51.325,34.644 C51.377,34.644 51.425,34.613 51.446,34.565 C51.446,34.565 53.708,29.548 53.708,29.548 C54.292,28.253 55.587,27.416 57.009,27.416 C57.009,27.416 65.292,27.416 65.292,27.416 C65.292,27.416 65.292,23.121 65.292,23.121 C65.292,23.121 15.708,23.121 15.708,23.121 ZM58.123,3.139 C58.123,3.139 22.876,3.139 22.876,3.139 C22.876,3.139 22.876,9.990 22.876,9.990 C22.876,9.990 58.123,9.990 58.123,9.990 C58.123,9.990 58.123,3.139 58.123,3.139 ZM19.220,13.130 C19.220,13.130 19.220,19.981 19.220,19.981 C19.220,19.981 61.780,19.981 61.780,19.981 C61.780,19.981 61.780,13.130 61.780,13.130 C61.780,13.130 19.220,13.130 19.220,13.130 ZM65.346,8.357 C64.992,7.656 64.284,7.221 63.500,7.221 C63.500,7.221 61.263,7.221 61.263,7.221 C61.263,7.221 61.263,9.990 61.263,9.990 C61.263,9.990 63.350,9.990 63.350,9.990 C64.217,9.990 64.920,10.693 64.920,11.560 C64.920,11.560 64.920,19.981 64.920,19.981 C64.920,19.981 66.861,19.981 66.861,19.981 C67.728,19.981 68.431,20.684 68.431,21.551 C68.431,21.551 68.431,27.416 68.431,27.416 C68.431,27.416 74.986,27.416 74.986,27.416 C74.986,27.416 65.346,8.357 65.346,8.357 ZM77.511,57.501 C77.511,57.501 77.511,32.913 77.511,32.913 C77.511,31.806 76.610,30.904 75.502,30.904 C75.502,30.904 57.008,30.904 57.008,30.904 C56.956,30.904 56.909,30.935 56.888,30.982 C56.888,30.982 56.888,30.982 56.888,30.982 C56.888,30.982 54.626,35.999 54.626,35.999 C54.042,37.295 52.746,38.132 51.325,38.132 C51.325,38.132 29.675,38.132 29.675,38.132 C28.254,38.132 26.958,37.295 26.374,35.999 C26.374,35.999 24.112,30.982 24.112,30.982 C24.091,30.935 24.043,30.904 23.991,30.904 C23.991,30.904 5.498,30.904 5.498,30.904 C4.390,30.904 3.488,31.805 3.488,32.913 C3.488,32.913 3.488,57.501 3.488,57.501 C3.488,58.609 4.390,59.511 5.498,59.511 C5.498,59.511 75.502,59.511 75.502,59.511 C76.610,59.511 77.512,58.609 77.512,57.501 C77.512,57.501 77.511,57.501 77.511,57.501 ZM49.432,54.003 C49.432,54.003 31.568,54.003 31.568,54.003 C30.221,54.003 29.126,52.907 29.126,51.561 C29.126,51.561 29.126,46.082 29.126,46.082 C29.126,44.735 30.221,43.639 31.568,43.639 C31.568,43.639 49.432,43.639 49.432,43.639 C50.779,43.639 51.874,44.735 51.874,46.082 C51.874,46.082 51.874,51.561 51.874,51.561 C51.874,52.907 50.779,54.003 49.432,54.003 ZM48.735,46.779 C48.735,46.779 32.265,46.779 32.265,46.779 C32.265,46.779 32.265,50.864 32.265,50.864 C32.265,50.864 48.735,50.864 48.735,50.864 C48.735,50.864 48.735,46.779 48.735,46.779 Z" id="path-1" class="cls-2" fill-rule="evenodd"/>
</svg>
